<svg width="641" height="641" viewBox="0 0 641 641" fill="none" xmlns="http://www.w3.org/2000/svg">
<path fill-rule="evenodd" clip-rule="evenodd" d="M0.5 0.202881C88.8654 0.202881 160.5 71.8371 160.5 160.203C72.1346 160.203 0.5 88.5686 0.5 0.202881ZM320.5 0.202881C232.135 0.202881 160.5 71.8371 160.5 160.203C72.1346 160.203 0.5 231.837 0.5 320.203C0.5 408.568 72.1346 480.203 160.5 480.203C72.1346 480.203 0.5 551.838 0.5 640.203C88.8654 640.203 160.5 568.568 160.5 480.203C160.5 568.568 232.135 640.203 320.5 640.203C408.865 640.203 480.5 568.568 480.5 480.203C480.5 568.568 552.135 640.203 640.5 640.203C640.5 551.838 568.865 480.203 480.5 480.203C568.865 480.203 640.5 408.568 640.5 320.203C640.5 231.837 568.865 160.203 480.5 160.203C568.865 160.203 640.5 88.5686 640.5 0.202881C552.135 0.202881 480.5 71.8371 480.5 160.203C480.5 71.8371 408.865 0.202881 320.5 0.202881ZM480.5 480.203C480.5 391.838 408.865 320.203 320.5 320.203C320.5 408.568 392.135 480.203 480.5 480.203ZM320.5 320.203C408.865 320.203 480.5 248.569 480.5 160.203C480.5 248.569 552.135 320.203 640.5 320.203C552.135 320.203 480.5 391.838 480.5 480.203C392.135 480.203 320.5 551.838 320.5 640.203C320.5 551.838 248.865 480.203 160.5 480.203C248.865 480.203 320.5 408.568 320.5 320.203ZM320.5 320.203C232.135 320.203 160.5 391.838 160.5 480.203C160.5 391.838 88.8654 320.203 0.5 320.203C88.8654 320.203 160.5 248.569 160.5 160.203C160.5 248.569 232.135 320.203 320.5 320.203ZM320.5 320.203C320.5 231.837 392.135 160.203 480.5 160.203C392.135 160.203 320.5 88.5686 320.5 0.202881C320.5 88.5686 248.865 160.203 160.5 160.203C248.865 160.203 320.5 231.837 320.5 320.203Z" fill="white" fill-opacity="0.03"/>
</svg>
